M48
METRIC,LZ,000.000
;FILE_FORMAT=3:3
;TYPE=PLATED
;Layer: PTH_Through
;EasyEDA v6.5.37, 2023-10-24 21:26:48
;13e8901b193045539208411a1789d2c4,c6048ea56b6a48849a206ead02f041ac,10
;Gerber Generator version 0.2
;Holesize 1 = 0.306 mm
T01C0.306
;Holesize 2 = 0.701 mm
T02C0.701
;Holesize 3 = 1.101 mm
T03C1.101
%
G05
G90
T01
X014849Y082398
X019387Y076305
X024221Y080009
X023033Y078171
X019773Y078968
X021770Y081100
X028765Y080411
X029043Y084192
X023359Y086215
X016338Y084919
X016354Y078813
X018435Y078787
X022020Y082383
T02
X028956Y082677
X028956Y081407
X027686Y082677
X027686Y081407
X026416Y082677
X026416Y081407
X025146Y082677
X025146Y081407
T03
X008890Y080137
X008890Y082677
X011430Y080137
X011430Y082677
M30
