G04 Layer: TopSilkscreenLayer*
G04 EasyEDA v6.5.37, 2023-10-24 21:26:48*
G04 13e8901b193045539208411a1789d2c4,c6048ea56b6a48849a206ead02f041ac,10*
G04 Gerber Generator version 0.2*
G04 Scale: 100 percent, Rotated: No, Reflected: No *
G04 Dimensions in millimeters *
G04 leading zeros omitted , absolute positions ,4 integer and 5 decimal *
%FSLAX45Y45*%
%MOMM*%

%ADD10C,0.1300*%
%ADD11C,0.1524*%
%ADD12C,0.1520*%
%ADD13C,0.2540*%
%ADD14C,0.3000*%

%LPD*%
D10*
X1253236Y8471915D02*
G01*
X1250950Y8476487D01*
X1246378Y8481060D01*
X1241805Y8483345D01*
X1232915Y8483345D01*
X1228344Y8481060D01*
X1223771Y8476487D01*
X1221486Y8471915D01*
X1219200Y8465058D01*
X1219200Y8453628D01*
X1221486Y8446770D01*
X1223771Y8442452D01*
X1228344Y8437879D01*
X1232915Y8435594D01*
X1241805Y8435594D01*
X1246378Y8437879D01*
X1250950Y8442452D01*
X1253236Y8446770D01*
X1300226Y8476487D02*
G01*
X1295654Y8481060D01*
X1288795Y8483345D01*
X1279652Y8483345D01*
X1272794Y8481060D01*
X1268221Y8476487D01*
X1268221Y8471915D01*
X1270507Y8467344D01*
X1272794Y8465058D01*
X1277365Y8462771D01*
X1291081Y8458200D01*
X1295654Y8455913D01*
X1297939Y8453628D01*
X1300226Y8449055D01*
X1300226Y8442452D01*
X1295654Y8437879D01*
X1288795Y8435594D01*
X1279652Y8435594D01*
X1272794Y8437879D01*
X1268221Y8442452D01*
X1317497Y8471915D02*
G01*
X1317497Y8474202D01*
X1319529Y8478774D01*
X1321815Y8481060D01*
X1326387Y8483345D01*
X1335531Y8483345D01*
X1340104Y8481060D01*
X1342389Y8478774D01*
X1344676Y8474202D01*
X1344676Y8469629D01*
X1342389Y8465058D01*
X1337818Y8458200D01*
X1315212Y8435594D01*
X1346962Y8435594D01*
X1075436Y7836915D02*
G01*
X1073150Y7841487D01*
X1068578Y7846060D01*
X1064005Y7848345D01*
X1055115Y7848345D01*
X1050544Y7846060D01*
X1045971Y7841487D01*
X1043686Y7836915D01*
X1041400Y7830058D01*
X1041400Y7818628D01*
X1043686Y7811770D01*
X1045971Y7807452D01*
X1050544Y7802879D01*
X1055115Y7800594D01*
X1064005Y7800594D01*
X1068578Y7802879D01*
X1073150Y7807452D01*
X1075436Y7811770D01*
X1122426Y7841487D02*
G01*
X1117854Y7846060D01*
X1110995Y7848345D01*
X1101852Y7848345D01*
X1094994Y7846060D01*
X1090421Y7841487D01*
X1090421Y7836915D01*
X1092707Y7832344D01*
X1094994Y7830058D01*
X1099565Y7827771D01*
X1113281Y7823200D01*
X1117854Y7820913D01*
X1120139Y7818628D01*
X1122426Y7814055D01*
X1122426Y7807452D01*
X1117854Y7802879D01*
X1110995Y7800594D01*
X1101852Y7800594D01*
X1094994Y7802879D01*
X1090421Y7807452D01*
X1137412Y7839202D02*
G01*
X1141729Y7841487D01*
X1148587Y7848345D01*
X1148587Y7800594D01*
D11*
X1734022Y7853591D02*
G01*
X1734022Y7775613D01*
X1739102Y7760119D01*
X1749516Y7749705D01*
X1765264Y7744625D01*
X1775678Y7744625D01*
X1791172Y7749705D01*
X1801586Y7760119D01*
X1806666Y7775613D01*
X1806666Y7853591D01*
X1846290Y7827683D02*
G01*
X1846290Y7832763D01*
X1851370Y7843177D01*
X1856704Y7848511D01*
X1867118Y7853591D01*
X1887692Y7853591D01*
X1898106Y7848511D01*
X1903440Y7843177D01*
X1908520Y7832763D01*
X1908520Y7822349D01*
X1903440Y7811935D01*
X1893026Y7796441D01*
X1840956Y7744625D01*
X1913854Y7744625D01*
D10*
X762000Y7768844D02*
G01*
X775715Y7737094D01*
X789178Y7768844D02*
G01*
X775715Y7737094D01*
X804163Y7775702D02*
G01*
X808736Y7777987D01*
X815594Y7784845D01*
X815594Y7737094D01*
D11*
X1727200Y8573515D02*
G01*
X1727200Y8495537D01*
X1732279Y8480044D01*
X1742694Y8469629D01*
X1758442Y8464550D01*
X1768855Y8464550D01*
X1784350Y8469629D01*
X1794763Y8480044D01*
X1799844Y8495537D01*
X1799844Y8573515D01*
X1834134Y8552687D02*
G01*
X1844547Y8558021D01*
X1860295Y8573515D01*
X1860295Y8464550D01*
D12*
X821944Y7643621D02*
G01*
X811529Y7654036D01*
X796036Y7659115D01*
X775207Y7659115D01*
X759713Y7654036D01*
X749300Y7643621D01*
X749300Y7633208D01*
X754379Y7622794D01*
X759713Y7617460D01*
X770128Y7612379D01*
X801370Y7601965D01*
X811529Y7596886D01*
X816863Y7591552D01*
X821944Y7581137D01*
X821944Y7565644D01*
X811529Y7555229D01*
X796036Y7550150D01*
X775207Y7550150D01*
X759713Y7555229D01*
X749300Y7565644D01*
X856234Y7659115D02*
G01*
X856234Y7550150D01*
X856234Y7659115D02*
G01*
X902970Y7659115D01*
X918718Y7654036D01*
X923797Y7648702D01*
X929131Y7638287D01*
X929131Y7622794D01*
X923797Y7612379D01*
X918718Y7607300D01*
X902970Y7601965D01*
X856234Y7601965D01*
X963421Y7659115D02*
G01*
X963421Y7550150D01*
X997712Y7659115D02*
G01*
X997712Y7550150D01*
X997712Y7659115D02*
G01*
X1039113Y7550150D01*
X1080770Y7659115D02*
G01*
X1039113Y7550150D01*
X1080770Y7659115D02*
G01*
X1080770Y7550150D01*
X1115060Y7659115D02*
G01*
X1115060Y7581137D01*
X1120139Y7565644D01*
X1130554Y7555229D01*
X1146302Y7550150D01*
X1156715Y7550150D01*
X1172210Y7555229D01*
X1182623Y7565644D01*
X1187704Y7581137D01*
X1187704Y7659115D01*
X1221994Y7659115D02*
G01*
X1294892Y7550150D01*
X1294892Y7659115D02*
G01*
X1221994Y7550150D01*
D11*
X968009Y8696319D02*
G01*
X968009Y8824813D01*
X784590Y8824813D01*
X784590Y8696319D01*
X968009Y8601080D02*
G01*
X968009Y8472586D01*
X784590Y8472586D01*
X784590Y8601080D01*
X1183909Y8696319D02*
G01*
X1183909Y8824813D01*
X1000490Y8824813D01*
X1000490Y8696319D01*
X1183909Y8601080D02*
G01*
X1183909Y8472586D01*
X1000490Y8472586D01*
X1000490Y8601080D01*
X1623860Y8772870D02*
G01*
X2059139Y8772870D01*
X2059139Y8245129D01*
X1623860Y8245129D01*
X1623860Y8772870D01*
X1598460Y8087070D02*
G01*
X2033739Y8087070D01*
X2033739Y7559329D01*
X1598460Y7559329D01*
X1598460Y8087070D01*
D13*
X1292999Y8394700D02*
G01*
X1292999Y7886700D01*
X739000Y8394700D02*
G01*
X1292999Y8394700D01*
X739000Y7886700D02*
G01*
X1292999Y7886700D01*
X739000Y8141406D02*
G01*
X1016000Y8141406D01*
X1016000Y7886700D01*
X739000Y8394700D02*
G01*
X739000Y7886700D01*
X2436799Y8376005D02*
G01*
X2969412Y8376005D01*
X2969412Y8033994D01*
X2436799Y8033994D01*
X2436799Y8376005D01*
G75*
G01
X2465857Y8026400D02*
G03X2465857Y8026400I-40157J0D01*
D14*
G75*
G01
X1714119Y8699500D02*
G03X1714119Y8699500I-15011J0D01*
G75*
G01
X1503502Y8776233D02*
G03X1503502Y8776233I-15011J0D01*
G75*
G01
X1688719Y8013700D02*
G03X1688719Y8013700I-15011J0D01*
G75*
G01
X1478102Y8090433D02*
G03X1478102Y8090433I-15011J0D01*
M02*
